<?xml version="1.0" encoding="utf-8"?>
<!-- Generator: Adobe Illustrator 18.1.1, SVG Export Plug-In . SVG Version: 6.00 Build 0)  -->
<!DOCTYPE svg PUBLIC "-//W3C//DTD SVG 1.1//EN" "http://www.w3.org/Graphics/SVG/1.1/DTD/svg11.dtd">
<svg version="1.1" id="Layer_1" xmlns="http://www.w3.org/2000/svg" xmlns:xlink="http://www.w3.org/1999/xlink" x="0px" y="0px"
	 viewBox="0 0 157.2 137" enable-background="new 0 0 157.2 137" xml:space="preserve">
<g>
	<path fill="#424852" d="M96.3,60.5l-19.8,0.1c-6.6,0-11.9,5.4-11.8,12l0.2,52.4c0,6.6,5.4,11.9,11.9,11.8l19.8-0.1
		c6.6,0,11.9-5.4,11.9-12l-0.2-52.4C108.2,65.7,102.9,60.4,96.3,60.5z M105.5,124.7c0,4.9-3.9,8.9-8.9,8.9l-19.8,0.1
		c-4.9,0-8.9-3.9-8.9-8.9l-0.2-52.4c0-4.9,3.9-8.9,8.8-8.9l19.8-0.1c4.9,0,8.9,3.9,8.9,8.9L105.5,124.7z"/>
	<path fill="#424852" d="M144.9,21.7l-19.8,0.1c-6.6,0-11.9,5.4-11.8,11.9l0.4,91c0,6.6,5.4,11.9,12,11.8l19.8-0.1
		c6.6,0,11.9-5.4,11.8-12l-0.4-91C156.8,27,151.4,21.6,144.9,21.7z M154.2,124.5c0,4.9-3.9,8.9-8.9,8.9l-19.8,0.1
		c-4.9,0-8.9-3.9-8.9-8.9l-0.4-91c0-4.9,3.9-8.9,8.9-8.9l19.8-0.1c4.9,0,8.9,3.9,8.9,8.9L154.2,124.5z"/>
	<path fill="#424852" d="M47.7,84.4l-19.8,0.1c-6.6,0-11.9,5.4-11.9,12l0.1,28.7c0,6.6,5.4,11.9,12,11.8l19.8-0.1
		c6.6,0,11.9-5.4,11.8-12l-0.1-28.7C59.6,89.7,54.3,84.4,47.7,84.4z M56.8,125c0,4.9-3.9,8.9-8.9,8.9L28.2,134c-4.9,0-8.9-3.9-9-8.9
		l-0.1-28.7c0-4.9,3.9-8.9,8.9-8.9l19.8-0.1c4.9,0,8.9,3.9,8.9,8.9L56.8,125z"/>
	<path fill="#424852" d="M87.5,37.2l5.4,7.5l3.2,4.5l2-5.1l15.5-39.7l1.7-4.3l-4.6,0.2L68.1,2.4l-5.5,0.3l3.2,4.5l5.4,7.5l-56,53.9
		L0,83.3l18.7-9.9L87.5,37.2z M75.2,15l-6.9-9.6l42.6-2.2L95.4,42.9l-6.9-9.6L17.3,70.8L75.2,15z"/>
</g>
</svg>
