<?xml version="1.0" encoding="utf-8"?>
<!-- Generator: Adobe Illustrator 18.1.1, SVG Export Plug-In . SVG Version: 6.00 Build 0)  -->
<!DOCTYPE svg PUBLIC "-//W3C//DTD SVG 1.1//EN" "http://www.w3.org/Graphics/SVG/1.1/DTD/svg11.dtd">
<svg version="1.1" id="Layer_1" xmlns="http://www.w3.org/2000/svg" xmlns:xlink="http://www.w3.org/1999/xlink" x="0px" y="0px"
	 viewBox="0 0 149.2 137.8" enable-background="new 0 0 149.2 137.8" xml:space="preserve">
<g>
	<path fill="#424852" d="M89.1,34.3l-29.3,0.1c-7.3,0-13,6.7-13,12.4L47,87.3l0,3l3,0l5.6,0l0.2,44.6l0,3l3,0l32.1-0.1l3,0l0-3
		l-0.2-44.6l5.6,0l3,0l0-3l-0.2-40.4C102.1,40.8,96.7,34.3,89.1,34.3z M99.3,87l-8.6,0l0.2,47.6l-32.1,0.1l-0.2-47.6l-8.6,0
		l-0.2-40.4c0-4.1,4.3-9.4,10-9.4l29.2-0.1c6,0,10,5.2,10.1,9.3L99.3,87z"/>
	<path fill="#424852" d="M74.4,30.2c8.3,0,15.1-6.8,15-15.2c0-8.3-6.8-15.1-15.2-15c-8.3,0-15.1,6.8-15,15.2
		C59.3,23.5,66.1,30.2,74.4,30.2z M74.3,3C81,3,86.4,8.4,86.4,15c0,6.7-5.4,12.1-12,12.2c-6.7,0-12.1-5.4-12.2-12
		C62.2,8.5,67.6,3,74.3,3z"/>
	<path fill="#424852" d="M138.9,43.2l-20.8,0.1c-5.8,0-10.1,5.1-10.1,9.7l0.1,28.7l0,3l3,0l3.1,0l0.1,30.8l0,3l3,0l22.8-0.1l3,0l0-3
		l-0.1-30.8l3.1,0l3,0l0-3L149,52.8C149,48.2,144.8,43.2,138.9,43.2z M146.2,81.5l-6.1,0l0.1,33.8l-22.8,0.1l-0.2-33.8l-6.1,0
		L111,53c0-2.9,3.1-6.7,7.1-6.7l20.8-0.1c4.3,0,7.1,3.7,7.2,6.6L146.2,81.5z"/>
	<path fill="#424852" d="M128.5,42c6.4,0,11.6-5.2,11.5-11.6c0-6.4-5.3-11.6-11.7-11.6c-6.4,0-11.6,5.3-11.6,11.7
		C116.8,36.8,122.1,42,128.5,42z M128.4,21.8c4.7,0,8.6,3.8,8.6,8.6c0,4.8-3.8,8.6-8.6,8.6c-4.8,0-8.6-3.8-8.6-8.6
		C119.8,25.7,123.6,21.8,128.4,21.8z"/>
	<path fill="#424852" d="M30.9,43.7l-20.8,0.1C4.3,43.8,0,48.9,0,53.5l0.1,28.7l0,3l3,0l3.1,0L6.4,116l0,3l3,0l22.8-0.1l3,0l0-3
		L35.1,85l3.1,0l3,0l0-3L41,53.3C41,48.7,36.8,43.7,30.9,43.7z M38.2,82l-6.1,0l0.2,33.8L9.4,116L9.2,82.1l-6.1,0L3,53.5
		c0-2.9,3.1-6.7,7.1-6.7l20.8-0.1c4.3,0,7.1,3.7,7.2,6.6L38.2,82z"/>
	<path fill="#424852" d="M20.5,42.5c6.4,0,11.6-5.2,11.5-11.6c0-6.4-5.3-11.6-11.6-11.6c-6.4,0-11.6,5.3-11.6,11.7
		C8.8,37.3,14.1,42.5,20.5,42.5z M20.4,22.3c4.7,0,8.6,3.8,8.6,8.6c0,4.8-3.8,8.6-8.6,8.6c-4.8,0-8.6-3.8-8.6-8.6
		C11.8,26.1,15.6,22.3,20.4,22.3z"/>
</g>
</svg>
