<?xml version="1.0" encoding="utf-8"?>
<!-- Generator: Adobe Illustrator 18.1.1, SVG Export Plug-In . SVG Version: 6.00 Build 0)  -->
<!DOCTYPE svg PUBLIC "-//W3C//DTD SVG 1.1//EN" "http://www.w3.org/Graphics/SVG/1.1/DTD/svg11.dtd">
<svg version="1.1" id="Layer_1" xmlns="http://www.w3.org/2000/svg" xmlns:xlink="http://www.w3.org/1999/xlink" x="0px" y="0px"
	 viewBox="0 0 143 148.3" enable-background="new 0 0 143 148.3" xml:space="preserve">
<path fill="#424852" d="M87,37.6c1.3-1.2,2.1-2.7,2.1-4.5v-2.7c0-1.8-0.8-3.3-2.1-4.5c1.5-0.9,2.8-2.4,3.8-4.4l5.4-12.4l0.1-0.3
	l0.1-0.3C96.8,6.5,96.3,4.6,95,3c-1.6-1.9-4.1-3-6.7-3h-0.2l-0.2,0C84.5,0.5,75,1.8,71.7,1.8c-3.4,0-13.1-1.3-16.6-1.7l-0.2,0h-0.2
	c-2.6,0-5,1-6.5,2.7c-1.4,1.5-2,3.6-1.7,5.8l0,0.4l0.2,0.4l5.8,13.1c0.8,1.5,2.1,2.6,3.5,3.4c-1.4,1.2-2.2,2.8-2.2,4.6v2.7
	c0,1.8,0.8,3.3,2.1,4.5C24,44.8,0,73.2,0,107.3c0,14.2,4.2,27.9,12,39.7l0.9,1.3H130l0.9-1.3c7.9-11.8,12.1-25.5,12.1-39.7
	C143,73.2,119,44.8,87,37.6z M61.8,36.8c-2.7,0-5-1.6-5-3.6v-2.7c0-2,2.2-3.6,5-3.6h19.5c2.7,0,5,1.6,5,3.6v2.7c0,2-2.2,3.6-5,3.6
	H61.8z M49.4,8.1C49,4.9,51.5,3,54.6,3c0,0,12.7,1.8,17,1.8S88.3,3,88.3,3c3.1,0,5.7,2.3,5.2,4.9l-5.4,12.3
	c-1.2,2.4-2.6,3.6-4.8,3.9c-0.7-0.2-1.4-0.3-2.1-0.3H61.8c-0.8,0-1.5,0.2-2.2,0.4c-2.2-0.4-3.7-1.6-4.4-3L49.4,8.1z M128.4,145.3
	H14.5c-7.3-10.9-11.5-24-11.5-38C3,73,28.2,44.7,61.1,39.7c0.2,0,0.4,0.1,0.7,0.1h19.5c0.3,0,0.5-0.1,0.8-0.1
	c32.8,5.1,58,33.3,58,67.6C140,121.3,135.7,134.4,128.4,145.3z"/>
<g>
	<g>
		<path fill="#424852" d="M71.4,124.6c-5.4,0-10-2-13.7-5.9c-3.2-3.4-5.3-8-6.4-13.7h-9.5l2.4-8h6.4c0-0.5,0-1,0-1.4
			c0-0.4,0-0.7,0-1.1h-8.8l2.4-8h7.3c0.9-3.9,2.4-7.4,4.4-10.4c3.9-5.7,9.4-8.5,16.3-8.5c5.9,0,10.5,1.9,13.8,5.6
			c3.2,3.7,5,7.9,5.4,12.5l0.1,1.6h-8.5l-0.2-1.2c-0.6-3-1.7-5.4-3.4-7.1c-1.7-1.7-4-2.5-7-2.5c-3.8,0-6.8,1.5-9.1,4.7
			c-1,1.4-1.8,3.1-2.4,5.2h19.6l-2.4,8H59.5c0,0.7,0,1.5,0,2.3c0,0.1,0,0.2,0,0.2h20.8l-2.4,8H60.4c0.5,2.1,1.3,4,2.4,5.6
			c2.1,3.3,5.1,4.9,9.3,4.9c3.8,0,6.6-1.7,8.5-5.1c1.1-1.9,1.9-4.5,2.5-7.7l0.2-1.2h8.6l-0.2,1.6c-0.5,5.7-2.3,10.5-5.4,14.4
			C82.7,122.2,77.6,124.6,71.4,124.6z M45.8,102h8.1l0.2,1.3c0.9,5.7,2.8,10.2,5.8,13.4c3.1,3.3,6.9,4.9,11.5,4.9
			c5.4,0,9.5-2,12.6-6c2.4-3,3.9-6.8,4.6-11.2h-2.8c-0.6,3-1.5,5.5-2.6,7.4c-2.5,4.4-6.3,6.7-11.1,6.7c-5.2,0-9.2-2.1-11.8-6.3
			c-1.5-2.4-2.6-5.2-3.2-8.5l-0.3-1.8h18.9l0.6-2H56.6l-0.1-1.4c0-0.6,0-1.2,0-1.8c0-1.3,0-2.6,0.1-3.9l0.1-1.4h19l0.6-2H57l0.4-1.8
			c0.7-3.3,1.8-6,3.4-8.2c2.9-3.9,6.8-5.9,11.5-5.9c3.9,0,6.9,1.1,9.2,3.3c1.9,1.9,3.2,4.4,4,7.4h2.8c-0.6-3.4-2-6.4-4.4-9.2
			c-2.7-3.1-6.5-4.6-11.6-4.6c-5.9,0-10.4,2.4-13.8,7.2c-2,2.9-3.4,6.5-4.2,10.5l-0.2,1.2h-7.5l-0.6,2h7.9l-0.1,1.6
			c0,0.8-0.1,1.7-0.1,2.5c0,1,0,1.9,0.1,2.9l0.1,1.6h-7.3L45.8,102z"/>
	</g>
</g>
</svg>
