<?xml version="1.0" encoding="utf-8"?>
<!-- Generator: Adobe Illustrator 18.1.1, SVG Export Plug-In . SVG Version: 6.00 Build 0)  -->
<!DOCTYPE svg PUBLIC "-//W3C//DTD SVG 1.1//EN" "http://www.w3.org/Graphics/SVG/1.1/DTD/svg11.dtd">
<svg version="1.1" id="Layer_1" xmlns="http://www.w3.org/2000/svg" xmlns:xlink="http://www.w3.org/1999/xlink" x="0px" y="0px"
	 viewBox="0 0 178.2 133.8" enable-background="new 0 0 178.2 133.8" xml:space="preserve">
<g>
	<path fill="#424852" d="M158.3,111.7l-15.7,0.1l-0.3-58.2c0-4.8-3.9-8.6-8.7-8.6l-6.8,0c-4.8,0-8.6,3.9-8.6,8.7l0.3,58.2l-17.4,0.1
		l-0.3-58.2c0-4.8-3.9-8.6-8.7-8.6l-6.8,0c-4.8,0-8.6,3.9-8.6,8.7l0.3,58.2l-17.4,0.1l-0.3-58.2c0-4.8-3.9-8.6-8.7-8.6l-6.8,0
		c-4.8,0-8.6,3.9-8.6,8.7l0.3,58.2l-15.7,0.1c-4.8,0-8.6,3.9-8.6,8.7l0,4.2c0,4.8,3.9,8.6,8.7,8.6l138.6-0.6c4.8,0,8.6-3.9,8.6-8.7
		l0-4.2C167,115.5,163.1,111.6,158.3,111.7z M121.2,53.6c0-3.1,2.5-5.7,5.6-5.7l6.8,0c3.1,0,5.7,2.5,5.7,5.6l0.3,58.2l-18.1,0.1
		L121.2,53.6z M79.7,53.8c0-3.1,2.5-5.7,5.6-5.7l6.8,0c3.1,0,5.7,2.5,5.7,5.6l0.3,58.3L79.9,112L79.7,53.8z M38.1,54
		c0-3.1,2.5-5.7,5.6-5.7l6.8,0c3.1,0,5.7,2.5,5.7,5.6l0.3,58.2l-18.1,0.1L38.1,54z M164,124.5c0,3.1-2.5,5.7-5.6,5.7l-138.6,0.6
		c-3.1,0-5.7-2.5-5.7-5.6l0-4.2c0-3.1,2.5-5.7,5.6-5.7l138.6-0.6c3.1,0,5.7,2.5,5.7,5.6L164,124.5z"/>
	<path fill="#424852" d="M178.2,39.2L90.2,0.5L88.9,0l-1.2,0.5L0,40L178.2,39.2z M88.9,3.3l75.1,33l-150,0.7L88.9,3.3z"/>
</g>
</svg>
