<?xml version="1.0" encoding="utf-8"?>
<!-- Generator: Adobe Illustrator 18.1.1, SVG Export Plug-In . SVG Version: 6.00 Build 0)  -->
<!DOCTYPE svg PUBLIC "-//W3C//DTD SVG 1.1//EN" "http://www.w3.org/Graphics/SVG/1.1/DTD/svg11.dtd">
<svg version="1.1" id="Layer_1" xmlns="http://www.w3.org/2000/svg" xmlns:xlink="http://www.w3.org/1999/xlink" x="0px" y="0px"
	 viewBox="0 0 161.1 143" enable-background="new 0 0 161.1 143" xml:space="preserve">
<g>
	<path fill="#424852" d="M106.2,123c-0.9-0.4-10.3-4.9-14.4-6.9v-1.2c1.6-1.7,2.5-3.7,2.6-5.8c1.3-1,2.3-2.7,2.6-4.8
		c0.2-1.7,0.1-3.2-0.5-4.4c-0.3-0.6-0.7-1.2-1.1-1.6l0.2-2c0-5.5-4.1-12.9-13.4-12.9C73.1,83.3,69,90.7,69,96l0.2,2.3
		c-1.3,1.4-2,3.5-1.6,5.9c0.3,2.2,1.3,3.9,2.7,4.9c0,2,1,4.1,2.6,5.8v1.2c-6.5,3-13.7,6.4-14.5,7c-0.1,0.1-0.3,0.2-0.4,0.2
		c-1.2,0.7-4.1,2.2-4.1,5.4V140v3h3h50.9h3v-3v-11.3C110.8,125.3,107.5,123.6,106.2,123z M107.8,140H56.9v-11.3
		c0-1.7,2.3-2.6,3.2-3.2c0.9-0.6,15.8-7.6,15.8-7.6v-4.4c-1.6-1.3-2.6-3.1-2.6-5l-0.2-1.5c-1.1-0.1-2.2-1.4-2.5-3.2l0-0.2
		c-0.3-2,0.5-3.7,1.7-3.9c0,0,0,0,0.1,0L72,96c0-4,3.2-9.7,10.4-9.7c7.2,0,10.4,5.7,10.4,9.7l-0.4,3.9c0,0,0,0,0.1,0
		c1.3,0.2,2,1.9,1.7,3.9l0,0.2c-0.3,1.8-1.4,3.1-2.5,3.2l-0.2,1.5c0,1.9-1.1,3.7-2.6,5v4.4c0,0,15,7.1,15.8,7.6
		c0.8,0.4,3.2,1.4,3.2,3.2V140z"/>
	<path fill="#424852" d="M56.9,59.7v-3V45.4c0-3.4-3.3-5.1-4.5-5.7c-0.9-0.5-10.3-5-14.4-6.9v-1.2c1.6-1.7,2.5-3.7,2.6-5.8
		c1.3-1,2.3-2.7,2.6-4.8c0.4-2.4-0.3-4.6-1.6-6l0.2-2c0-5.5-4.1-13-13.4-13c-9.2,0-13.4,7.4-13.4,12.7l0.2,2.3
		c-1.3,1.4-2,3.5-1.6,5.9c0.3,2.1,1.3,3.9,2.7,4.9c0,2,1,4.1,2.6,5.8v1.2c-6.5,3.1-13.7,6.5-14.5,7c-0.1,0.1-0.3,0.2-0.4,0.2
		C2.7,40.7,0,42.2,0,45.4v11.3v3h3h50.9H56.9z M3,45.4c0-1.7,2.3-2.6,3.2-3.2c0.9-0.6,15.8-7.6,15.8-7.6v-4.4
		c-1.6-1.3-2.6-3.1-2.6-5l-0.2-1.5c-1.1-0.1-2.2-1.4-2.5-3.2l0-0.1c-0.3-2,0.5-3.7,1.7-3.9c0,0,0,0,0,0c0,0,0,0,0,0c0,0,0,0,0,0
		l-0.4-3.9c0-4,3.2-9.7,10.4-9.7c7.2,0,10.4,5.7,10.4,9.7l-0.4,3.9c0,0,0,0,0,0c0,0,0,0,0,0c0,0,0,0,0,0c1.3,0.2,2,1.9,1.8,3.9
		l0,0.1c-0.3,1.8-1.3,3.2-2.5,3.2l-0.1,1.5c0,1.9-1.1,3.7-2.6,5v4.4c0,0,15,7.2,15.8,7.6c0.8,0.4,3.2,1.4,3.2,3.2v11.3H3V45.4z"/>
	<path fill="#424852" d="M156.5,39.7c-0.9-0.4-10.3-5-14.4-6.9v-1.2c1.6-1.7,2.5-3.7,2.6-5.8c1.3-1,2.3-2.7,2.6-4.8
		c0.4-2.4-0.3-4.6-1.6-6l0.2-2c0-5.6-4.1-13-13.4-13c-9.2,0-13.4,7.4-13.4,12.7l0.2,2.3c-1.3,1.4-2,3.5-1.6,5.9
		c0.3,2.1,1.3,3.9,2.6,4.9c0,2,1,4.1,2.6,5.8v1.2c-6.5,3.1-13.7,6.5-14.5,7c-0.1,0.1-0.3,0.2-0.4,0.2c-1.3,0.7-4.1,2.2-4.1,5.4v11.3
		v3h3h50.9h3v-3V45.4C161.1,42,157.8,40.3,156.5,39.7z M158.1,56.7h-50.9V45.4c0-1.7,2.3-2.6,3.2-3.2c0.9-0.6,15.8-7.6,15.8-7.6
		v-4.4c-1.6-1.3-2.7-3.1-2.7-5l-0.1-1.5c-1.1-0.1-2.2-1.4-2.5-3.2l0-0.1c-0.3-2,0.5-3.7,1.7-3.9c0,0,0,0,0,0c0,0,0,0,0,0
		c0,0,0,0,0,0l-0.4-3.9c0-4,3.2-9.7,10.4-9.7c7.2,0,10.4,5.7,10.4,9.7l-0.4,3.9c0,0,0,0,0,0c0,0,0,0,0,0c0,0,0,0,0,0
		c1.3,0.2,2,1.9,1.8,3.9l0,0.1c-0.3,1.8-1.4,3.2-2.5,3.2l-0.2,1.5c0,1.9-1.1,3.7-2.6,5v4.4c0,0,15,7.2,15.8,7.6
		c0.8,0.4,3.2,1.4,3.2,3.2V56.7z"/>
	<path fill="#424852" d="M56.8,80.7L41.3,65.6c-1.2-1.2-3.2-1.2-4.4,0.1c-1.2,1.2-1.2,3.2,0.1,4.4l15.5,15.1c1.2,1.2,3.2,1.2,4.4,0
		C58,83.9,58,81.9,56.8,80.7z"/>
	<path fill="#424852" d="M119.8,65.6l-15.5,15.1c-1.2,1.2-1.2,3.1,0,4.4c1.2,1.2,3.1,1.2,4.4,0L124.1,70c1.2-1.2,1.2-3.1,0-4.4
		C123,64.5,121,64.4,119.8,65.6z"/>
</g>
</svg>
