<?xml version="1.0" encoding="utf-8"?>
<!-- Generator: Adobe Illustrator 18.1.1, SVG Export Plug-In . SVG Version: 6.00 Build 0)  -->
<!DOCTYPE svg PUBLIC "-//W3C//DTD SVG 1.1//EN" "http://www.w3.org/Graphics/SVG/1.1/DTD/svg11.dtd">
<svg version="1.1" id="Layer_1" xmlns="http://www.w3.org/2000/svg" xmlns:xlink="http://www.w3.org/1999/xlink" x="0px" y="0px"
	 viewBox="0 0 129.7 129.7" enable-background="new 0 0 129.7 129.7" xml:space="preserve">
<g>
	
		<rect x="1.8" y="1.7" opacity="0" fill-rule="evenodd" clip-rule="evenodd" fill="none" stroke="#424852" stroke-width="3.5" stroke-miterlimit="10" width="126.2" height="126.2"/>
	<path fill-rule="evenodd" clip-rule="evenodd" fill="none" stroke="#424852" stroke-width="3.5" stroke-miterlimit="10" d="M67.5,2
		c33.1,0,60,26.9,60,60c0,33.1-26.9,60-60,60s-60-26.9-60-60C7.5,28.9,34.4,2,67.5,2z M67.5,10.6c-28.4,0-51.5,23.1-51.5,51.5
		s23.1,51.5,51.5,51.5S119,90.5,119,62S96,10.6,67.5,10.6z M67.5,17l10.8,34.2L112.6,62L78.4,72.9L67.5,107L56.7,72.9L22.5,62
		l34.2-10.8L67.5,17z M67.5,56.2c-3.2,0-5.8,2.6-5.8,5.8c0,3.2,2.6,5.8,5.8,5.8c3.2,0,5.8-2.6,5.8-5.8
		C73.4,58.8,70.8,56.2,67.5,56.2z"/>
</g>
</svg>
