<?xml version="1.0" encoding="utf-8"?>
<!-- Generator: Adobe Illustrator 18.1.1, SVG Export Plug-In . SVG Version: 6.00 Build 0)  -->
<!DOCTYPE svg PUBLIC "-//W3C//DTD SVG 1.1//EN" "http://www.w3.org/Graphics/SVG/1.1/DTD/svg11.dtd">
<svg version="1.1" id="Layer_1" xmlns="http://www.w3.org/2000/svg" xmlns:xlink="http://www.w3.org/1999/xlink" x="0px" y="0px"
	 viewBox="0 0 101.5 143.9" enable-background="new 0 0 101.5 143.9" xml:space="preserve">
<path fill="#424852" d="M92.3,67.4h-6.7V56.1c0-3.8-3.8-5.7-5.3-6.5l-0.3-0.1c-0.9-0.5-13.4-6.4-18.2-8.7v-2.3
	c2.1-2.1,3.3-4.7,3.3-7.4c1.7-1.1,2.9-3.2,3.3-5.7c0.4-2.5-0.1-4.7-1.3-6.3c-0.2-0.3-0.5-0.6-0.7-0.8l0.3-2.9c0-6.6-5-15.4-16-15.4
	c-11,0-16,8.8-16,15.1l0.3,3.1c-1.6,1.5-2.5,4.1-2.1,7.1c0.4,2.6,1.6,4.7,3.3,5.8l0,0.1c0,2.5,1.2,5.1,3.3,7.3v2.3
	c-7.1,3.4-17.4,8.2-18.5,8.9c-0.1,0.1-0.3,0.2-0.6,0.3c-1.5,0.8-4.7,2.6-4.7,6.1v11.2H9.2c-5.1,0-9.2,4.1-9.2,9.2v21.4
	c0,1.8,0,5.2,30.9,20.1v16.7c0,5.1,4.1,9.2,9.2,9.2h21.4c5.1,0,9.2-4.1,9.2-9.2V118c30.9-14.9,30.9-18.2,30.9-20.1V76.5
	C101.5,71.5,97.4,67.4,92.3,67.4z M18.9,56.1c0-2.2,2.8-3.2,3.9-3.9c1.1-0.7,19.8-9.5,19.8-9.5v-5.5c-2-1.6-3.3-3.8-3.3-6.3L39.1,29
	c-1.5-0.1-2.8-1.8-3.1-4l0-0.2c-0.4-2.5,0.6-4.6,2.2-4.9h0.1l-0.5-4.8c0-5,4-12.1,13-12.1c9,0,13,7.1,13,12.1l-0.5,4.8h0.1
	c1.6,0.2,2.6,2.4,2.2,4.9l0,0.2c-0.3,2.3-1.7,3.9-3.1,4l-0.2,1.9c0,2.4-1.3,4.6-3.3,6.3v5.5c0,0,18.8,9,19.8,9.5
	c1,0.5,3.9,1.8,3.9,3.9v11.2H18.9V56.1z M98.5,97.9c0,3.4-30.9,18.2-30.9,18.2v18.6c0,3.4-2.8,6.2-6.2,6.2H40.1
	c-3.4,0-6.2-2.8-6.2-6.2v-18.6c0,0-30.9-14.8-30.9-18.2V76.5c0-3.4,2.8-6.2,6.2-6.2h83.2c3.4,0,6.2,2.8,6.2,6.2V97.9z"/>
</svg>
